# xmcd
#
# Track frame offsets: 
#        150
#        30977
#        65795
#        95962
#        126190
#        159145
#
# Disc length: 2573 seconds
#
# Revision: 3
# Processed by: cddbd v1.5.2PL0 Copyright (c) Steve Scherf et al.
# Submitted via: ExactAudioCopy v0.95b4
#
DISCID=4a0a0b06
DTITLE=Hank Mobley With Farmer, Silver, Watkins, Blakey - Hank Mobley 
DTITLE=Quintet
DYEAR=1957
DGENRE=Jazz
TTITLE0=Funk In Deep Freeze
TTITLE1=Wham And They're Off
TTITLE2=Fin De L'Affaire
TTITLE3=Startin' From Scratch
TTITLE4=Stella-wise
TTITLE5=Base On Balls
EXTD=YEAR: 1957
EXTT0=
EXTT1=
EXTT2=
EXTT3=
EXTT4=
EXTT5=
PLAYORDER=
